<svg height="1726" width="720" xmlns="http://www.w3.org/2000/svg">
<rect height="1726" fill="#555" width="720"></rect>
<text fill="#7f7" font-family="Courier New" font-size="12" xml:space="preserve">
<tspan x="10" y="26">11 megabytes installed</tspan>
<tspan x="10" y="42"></tspan>
<tspan x="10" y="58">node_modules</tspan>
<tspan x="10" y="74">└─┬ homebridge-websocket@0.1.12 </tspan>
<tspan x="10" y="90">  ├─┬ express@4.15.2 </tspan>
<tspan x="10" y="106">  │ ├─┬ accepts@1.3.3 </tspan>
<tspan x="10" y="122">  │ │ └── negotiator@0.6.1 </tspan>
<tspan x="10" y="138">  │ ├── array-flatten@1.1.1 </tspan>
<tspan x="10" y="154">  │ ├── content-disposition@0.5.2 </tspan>
<tspan x="10" y="170">  │ ├── content-type@1.0.2 </tspan>
<tspan x="10" y="186">  │ ├── cookie@0.3.1 </tspan>
<tspan x="10" y="202">  │ ├── cookie-signature@1.0.6 </tspan>
<tspan x="10" y="218">  │ ├─┬ debug@2.6.1 </tspan>
<tspan x="10" y="234">  │ │ └── ms@0.7.2 </tspan>
<tspan x="10" y="250">  │ ├── depd@1.1.0 </tspan>
<tspan x="10" y="266">  │ ├── encodeurl@1.0.1 </tspan>
<tspan x="10" y="282">  │ ├── escape-html@1.0.3 </tspan>
<tspan x="10" y="298">  │ ├── etag@1.8.0 </tspan>
<tspan x="10" y="314">  │ ├─┬ finalhandler@1.0.1 </tspan>
<tspan x="10" y="330">  │ │ ├── debug@2.6.3 </tspan>
<tspan x="10" y="346">  │ │ └── unpipe@1.0.0 </tspan>
<tspan x="10" y="362">  │ ├── fresh@0.5.0 </tspan>
<tspan x="10" y="378">  │ ├── merge-descriptors@1.0.1 </tspan>
<tspan x="10" y="394">  │ ├── methods@1.1.2 </tspan>
<tspan x="10" y="410">  │ ├─┬ on-finished@2.3.0 </tspan>
<tspan x="10" y="426">  │ │ └── ee-first@1.1.1 </tspan>
<tspan x="10" y="442">  │ ├── parseurl@1.3.1 </tspan>
<tspan x="10" y="458">  │ ├── path-to-regexp@0.1.7 </tspan>
<tspan x="10" y="474">  │ ├─┬ proxy-addr@1.1.4 </tspan>
<tspan x="10" y="490">  │ │ ├── forwarded@0.1.0 </tspan>
<tspan x="10" y="506">  │ │ └── ipaddr.js@1.3.0 </tspan>
<tspan x="10" y="522">  │ ├── qs@6.4.0 </tspan>
<tspan x="10" y="538">  │ ├── range-parser@1.2.0 </tspan>
<tspan x="10" y="554">  │ ├─┬ send@0.15.1 </tspan>
<tspan x="10" y="570">  │ │ ├── destroy@1.0.4 </tspan>
<tspan x="10" y="586">  │ │ ├─┬ http-errors@1.6.1 </tspan>
<tspan x="10" y="602">  │ │ │ └── inherits@2.0.3 </tspan>
<tspan x="10" y="618">  │ │ └── mime@1.3.4 </tspan>
<tspan x="10" y="634">  │ ├── serve-static@1.12.1 </tspan>
<tspan x="10" y="650">  │ ├── setprototypeof@1.0.3 </tspan>
<tspan x="10" y="666">  │ ├── statuses@1.3.1 </tspan>
<tspan x="10" y="682">  │ ├─┬ type-is@1.6.15 </tspan>
<tspan x="10" y="698">  │ │ └── media-typer@0.3.0 </tspan>
<tspan x="10" y="714">  │ ├── utils-merge@1.0.0 </tspan>
<tspan x="10" y="730">  │ └── vary@1.1.1 </tspan>
<tspan x="10" y="746">  ├─┬ request@2.81.0 </tspan>
<tspan x="10" y="762">  │ ├── aws-sign2@0.6.0 </tspan>
<tspan x="10" y="778">  │ ├── aws4@1.6.0 </tspan>
<tspan x="10" y="794">  │ ├── caseless@0.12.0 </tspan>
<tspan x="10" y="810">  │ ├─┬ combined-stream@1.0.5 </tspan>
<tspan x="10" y="826">  │ │ └── delayed-stream@1.0.0 </tspan>
<tspan x="10" y="842">  │ ├── extend@3.0.0 </tspan>
<tspan x="10" y="858">  │ ├── forever-agent@0.6.1 </tspan>
<tspan x="10" y="874">  │ ├─┬ form-data@2.1.4 </tspan>
<tspan x="10" y="890">  │ │ └── asynckit@0.4.0 </tspan>
<tspan x="10" y="906">  │ ├─┬ har-validator@4.2.1 </tspan>
<tspan x="10" y="922">  │ │ ├─┬ ajv@4.11.7 </tspan>
<tspan x="10" y="938">  │ │ │ ├── co@4.6.0 </tspan>
<tspan x="10" y="954">  │ │ │ └─┬ json-stable-stringify@1.0.1 </tspan>
<tspan x="10" y="970">  │ │ │   └── jsonify@0.0.0 </tspan>
<tspan x="10" y="986">  │ │ └── har-schema@1.0.5 </tspan>
<tspan x="10" y="1002">  │ ├─┬ hawk@3.1.3 </tspan>
<tspan x="10" y="1018">  │ │ ├── boom@2.10.1 </tspan>
<tspan x="10" y="1034">  │ │ ├── cryptiles@2.0.5 </tspan>
<tspan x="10" y="1050">  │ │ ├── hoek@2.16.3 </tspan>
<tspan x="10" y="1066">  │ │ └── sntp@1.0.9 </tspan>
<tspan x="10" y="1082">  │ ├─┬ http-signature@1.1.1 </tspan>
<tspan x="10" y="1098">  │ │ ├── assert-plus@0.2.0 </tspan>
<tspan x="10" y="1114">  │ │ ├─┬ jsprim@1.4.0 </tspan>
<tspan x="10" y="1130">  │ │ │ ├── assert-plus@1.0.0 </tspan>
<tspan x="10" y="1146">  │ │ │ ├── extsprintf@1.0.2 </tspan>
<tspan x="10" y="1162">  │ │ │ ├── json-schema@0.2.3 </tspan>
<tspan x="10" y="1178">  │ │ │ └── verror@1.3.6 </tspan>
<tspan x="10" y="1194">  │ │ └─┬ sshpk@1.13.0 </tspan>
<tspan x="10" y="1210">  │ │   ├── asn1@0.2.3 </tspan>
<tspan x="10" y="1226">  │ │   ├── assert-plus@1.0.0 </tspan>
<tspan x="10" y="1242">  │ │   ├── bcrypt-pbkdf@1.0.1 </tspan>
<tspan x="10" y="1258">  │ │   ├─┬ dashdash@1.14.1 </tspan>
<tspan x="10" y="1274">  │ │   │ └── assert-plus@1.0.0 </tspan>
<tspan x="10" y="1290">  │ │   ├── ecc-jsbn@0.1.1 </tspan>
<tspan x="10" y="1306">  │ │   ├─┬ getpass@0.1.6 </tspan>
<tspan x="10" y="1322">  │ │   │ └── assert-plus@1.0.0 </tspan>
<tspan x="10" y="1338">  │ │   ├── jodid25519@1.0.2 </tspan>
<tspan x="10" y="1354">  │ │   ├── jsbn@0.1.1 </tspan>
<tspan x="10" y="1370">  │ │   └── tweetnacl@0.14.5 </tspan>
<tspan x="10" y="1386">  │ ├── is-typedarray@1.0.0 </tspan>
<tspan x="10" y="1402">  │ ├── isstream@0.1.2 </tspan>
<tspan x="10" y="1418">  │ ├── json-stringify-safe@5.0.1 </tspan>
<tspan x="10" y="1434">  │ ├─┬ mime-types@2.1.15 </tspan>
<tspan x="10" y="1450">  │ │ └── mime-db@1.27.0 </tspan>
<tspan x="10" y="1466">  │ ├── oauth-sign@0.8.2 </tspan>
<tspan x="10" y="1482">  │ ├── performance-now@0.2.0 </tspan>
<tspan x="10" y="1498">  │ ├── safe-buffer@5.0.1 </tspan>
<tspan x="10" y="1514">  │ ├── stringstream@0.0.5 </tspan>
<tspan x="10" y="1530">  │ ├─┬ tough-cookie@2.3.2 </tspan>
<tspan x="10" y="1546">  │ │ └── punycode@1.4.1 </tspan>
<tspan x="10" y="1562">  │ ├── tunnel-agent@0.6.0 </tspan>
<tspan x="10" y="1578">  │ └── uuid@3.0.1 </tspan>
<tspan x="10" y="1594">  └─┬ ws@0.8.1 </tspan>
<tspan x="10" y="1610">    ├─┬ bufferutil@1.2.1 </tspan>
<tspan x="10" y="1626">    │ ├── bindings@1.2.1 </tspan>
<tspan x="10" y="1642">    │ └── nan@2.6.2 </tspan>
<tspan x="10" y="1658">    ├── options@0.0.6 </tspan>
<tspan x="10" y="1674">    ├── ultron@1.0.2 </tspan>
<tspan x="10" y="1690">    └─┬ utf-8-validate@1.2.2 </tspan>
<tspan x="10" y="1706">      └── nan@2.4.0</tspan>
</text>
</svg>
